<svg width="297" height="109" viewBox="0 0 297 109" fill="none" xmlns="http://www.w3.org/2000/svg">
<g clip-path="url(#clip0_12_85)">
<path d="M55.4802 53.7598V108.49H44.9102V62.1398L55.4802 53.7598Z" fill="#C1AD6D"/>
<path d="M55.48 0V40.4L44.91 48.78L33.04 58.19V90.71L22.48 82.33V53.08L33.04 44.7L44.91 35.29V21.86L33.04 31.28L23.18 39.1L22.48 39.66L10.57 49.1V108.49H0V43.99L10.57 35.61L22.48 26.16L33.04 17.78L55.48 0Z" fill="#C1AD6D"/>
<path d="M23.18 39.0998L22.48 39.6598V26.1598L33.04 17.7798V31.2798L23.18 39.0998Z" fill="#C1AD6D"/>
<path d="M33.04 63.7902L22.48 55.4102V53.0802L33.04 44.7002V63.7902Z" fill="#C1AD6D"/>
<path d="M55.48 71.2599V108.49L44.91 100.11L33.04 90.7099L22.48 82.3299L10.57 72.8799L0 64.4999V43.9899L10.57 35.6099V59.3899L22.48 68.8299L23.18 69.3899L33.04 77.2099L44.91 86.6299V62.8799L55.48 71.2599Z" fill="#C1AD6D"/>
<path d="M107.51 79.4199H93.4799L91.2399 84.3099H83.6299L100.38 48.3799H100.6L117.37 84.3099H109.73L107.51 79.4199ZM104.77 73.4099L100.51 64.0299L96.2199 73.4099H104.77Z" fill="white"/>
<path d="M149.06 49.1598V84.9598H148.73L127.91 64.7098V84.3498H120.86V48.5898H121.21L141.98 68.7998V49.1598H149.05H149.06Z" fill="white"/>
<path d="M153.63 66.8198C153.63 56.7498 161.83 48.5298 171.86 48.5298C181.89 48.5298 190.11 56.7498 190.11 66.8198C190.11 76.8898 181.89 84.9798 171.84 84.9798C161.79 84.9798 153.63 76.7998 153.63 66.8198ZM182.97 66.7798C182.97 60.6498 177.97 55.6398 171.83 55.6398C165.69 55.6398 160.74 60.6398 160.74 66.7798C160.74 72.9198 165.72 77.8498 171.83 77.8498C177.94 77.8498 182.97 72.8698 182.97 66.7798Z" fill="white"/>
<path d="M228.35 67.5898C228.35 78.5998 220.76 85.0098 211.62 85.0098C201.29 85.0098 193.15 76.8298 193.15 66.8198C193.15 56.8098 201.33 48.5298 211.36 48.5298C215.91 48.5698 220.76 50.6598 224.19 54.0098L220.27 59.8598C217.53 57.1798 214.4 55.6598 211.26 55.6598C205.82 55.6598 200.32 60.2698 200.32 66.8198C200.32 72.9098 205.06 77.9098 211.91 77.9098C216.91 77.9098 220.5 75.3398 220.74 71.1198H211.67V64.6198H228.16C228.27 65.6398 228.33 66.6198 228.33 67.5798L228.35 67.5898Z" fill="white"/>
<path d="M259.57 49.25V84.31H252.54V70.26H239.95V84.31H232.92V49.25H239.95V63.28H252.54V49.25H259.57Z" fill="white"/>
<path d="M286.96 79.4199H272.93L270.69 84.3099H263.08L279.83 48.3799H280.05L296.82 84.3099H289.18L286.96 79.4199ZM284.22 73.4099L279.96 64.0299L275.67 73.4099H284.22Z" fill="white"/>
<path d="M86.4501 106.25L85.6401 108.05H83.6201L89.0101 96.3701L94.4001 108.05H92.3801L91.5701 106.25H86.4601H86.4501ZM90.7401 104.45L89.0101 100.63L87.2801 104.45H90.7501H90.7401Z" fill="white"/>
<path d="M101.63 105.35H100.28V108.04H98.48V97.2603H102.52C103.64 97.2603 104.59 97.6503 105.38 98.4403C106.17 99.2303 106.56 100.18 106.56 101.3C106.56 102.42 106.17 103.37 105.38 104.16C104.88 104.66 104.32 105 103.7 105.18L106.56 108.04H104.31L101.62 105.35H101.63ZM100.28 99.0602V103.55H102.53C103.15 103.55 103.68 103.33 104.12 102.89C104.56 102.45 104.78 101.92 104.78 101.3C104.78 100.68 104.56 100.15 104.12 99.7103C103.68 99.2703 103.15 99.0503 102.53 99.0503H100.28V99.0602Z" fill="white"/>
<path d="M114.57 99.0602V108.04H112.77V99.0602H110.08V97.2603H117.27V99.0602H114.58H114.57Z" fill="white"/>
<path d="M134.99 99.2203C134.9 99.1303 134.81 99.0503 134.72 98.9803C134.39 98.7503 134.02 98.6103 133.6 98.5703C133.52 98.5703 133.43 98.5603 133.35 98.5603C132.94 98.5603 132.55 98.6703 132.2 98.9003C131.85 99.1303 131.65 99.4403 131.61 99.8403C131.61 99.8703 131.61 99.9103 131.61 99.9503C131.61 100.17 131.68 100.36 131.82 100.54C131.96 100.72 132.17 100.89 132.45 101.06C132.73 101.23 133.05 101.41 133.42 101.59L133.48 101.63L133.87 101.84C134.39 102.12 134.89 102.42 135.39 102.74L135.66 101.53L137.42 102.67L137.1 103.86L139.36 105.36L138.36 107.56L136.54 106.26C136.4 106.67 136.24 106.99 136.05 107.21C135.65 107.67 135.14 108.01 134.51 108.22C134.03 108.38 133.52 108.46 132.97 108.46C132.79 108.46 132.61 108.46 132.42 108.43C131.49 108.35 130.71 108.08 130.08 107.63C129.83 107.46 129.61 107.26 129.43 107.05L129.35 106.94C129.01 106.49 128.79 106 128.68 105.48C128.65 105.31 128.63 105.13 128.63 104.95V104.9C128.63 104.43 128.8 103.95 129.1 103.46C129.4 102.97 129.97 102.45 130.81 101.89C130.72 101.82 130.65 101.74 130.57 101.66C130.32 101.41 130.13 101.12 129.99 100.78C129.88 100.52 129.82 100.23 129.82 99.9003C129.82 99.8103 129.82 99.7203 129.83 99.6303C129.89 99.0203 130.1 98.4903 130.46 98.0503C130.82 97.6103 131.29 97.2803 131.87 97.0703C132.31 96.9003 132.79 96.8203 133.3 96.8203C133.44 96.8203 133.58 96.8203 133.73 96.8403C134.53 96.9103 135.21 97.1503 135.74 97.5603C135.89 97.6803 136.02 97.8003 136.15 97.9303L134.98 99.2103L134.99 99.2203ZM132.38 106.63C132.65 106.66 132.84 106.68 132.95 106.68C133.43 106.68 133.88 106.57 134.28 106.36C134.68 106.15 134.91 105.83 134.95 105.4C134.95 105.36 134.95 105.33 134.95 105.29C134.95 105.07 134.88 104.85 134.74 104.64C134.6 104.43 134.41 104.23 134.15 104.02C133.89 103.82 133.61 103.62 133.3 103.44C133.02 103.28 132.74 103.12 132.46 102.97L132.35 102.9C132.24 102.84 132.13 102.78 132.02 102.72C131.27 103.44 130.84 104 130.74 104.43C130.69 104.59 130.67 104.75 130.67 104.9C130.67 105.19 130.78 105.52 130.99 105.87C131.2 106.22 131.67 106.48 132.39 106.63H132.38Z" fill="white"/>
<path d="M153.54 106.25L152.73 108.05H150.71L156.1 96.3701L161.49 108.05H159.47L158.66 106.25H153.55H153.54ZM157.83 104.45L156.1 100.63L154.37 104.45H157.84H157.83Z" fill="white"/>
<path d="M168.72 105.35H167.37V108.04H165.57V97.2603H169.61C170.73 97.2603 171.68 97.6503 172.47 98.4403C173.26 99.2303 173.65 100.18 173.65 101.3C173.65 102.42 173.26 103.37 172.47 104.16C171.97 104.66 171.41 105 170.79 105.18L173.65 108.04H171.4L168.71 105.35H168.72ZM167.37 99.0602V103.55H169.62C170.24 103.55 170.77 103.33 171.21 102.89C171.65 102.45 171.87 101.92 171.87 101.3C171.87 100.68 171.65 100.15 171.21 99.7103C170.77 99.2703 170.24 99.0503 169.62 99.0503H167.37V99.0602Z" fill="white"/>
<path d="M183.97 98.6101C182.86 98.6101 181.91 99.0001 181.12 99.7901C180.33 100.58 179.93 101.54 179.93 102.65C179.93 103.76 180.32 104.72 181.11 105.51C181.9 106.3 182.85 106.69 183.97 106.69C184.98 106.69 185.86 106.37 186.59 105.72L187.87 107C186.78 107.99 185.47 108.49 183.97 108.49C182.36 108.49 180.98 107.92 179.84 106.78C178.7 105.64 178.13 104.26 178.13 102.65C178.13 101.04 178.7 99.6601 179.84 98.5201C180.98 97.3801 182.35 96.8101 183.96 96.8101C185.57 96.8101 186.95 97.3801 188.09 98.5201C188.16 98.6001 188.24 98.6701 188.31 98.7501L187.04 100.02C186.97 99.9401 186.9 99.8601 186.82 99.7901C186.03 99.0001 185.07 98.6101 183.96 98.6101H183.97Z" fill="white"/>
<path d="M194.44 103.55V108.04H192.64V97.2603H194.44V101.75H198.93V97.2603H200.73V108.04H198.93V103.55H194.44Z" fill="white"/>
<path d="M208.64 108.04H206.84V97.2603H208.64V108.04Z" fill="white"/>
<path d="M217.81 99.0602V108.04H216.01V99.0602H213.32V97.2603H220.51V99.0602H217.82H217.81Z" fill="white"/>
<path d="M231.5 97.2603V99.0602H227.01V101.76H230.6V103.56H227.01V106.25H231.5V108.05H225.21V97.2702H231.5V97.2603Z" fill="white"/>
<path d="M241.27 98.6101C240.16 98.6101 239.21 99.0001 238.42 99.7901C237.63 100.58 237.23 101.54 237.23 102.65C237.23 103.76 237.62 104.72 238.41 105.51C239.2 106.3 240.15 106.69 241.27 106.69C242.28 106.69 243.16 106.37 243.89 105.72L245.17 107C244.08 107.99 242.77 108.49 241.27 108.49C239.66 108.49 238.28 107.92 237.14 106.78C236 105.64 235.43 104.26 235.43 102.65C235.43 101.04 236 99.6601 237.14 98.5201C238.28 97.3801 239.65 96.8101 241.26 96.8101C242.87 96.8101 244.25 97.3801 245.39 98.5201C245.46 98.6001 245.54 98.6701 245.61 98.7501L244.34 100.02C244.27 99.9401 244.2 99.8601 244.12 99.7901C243.33 99.0001 242.37 98.6101 241.26 98.6101H241.27Z" fill="white"/>
<path d="M254.21 99.0602V108.04H252.41V99.0602H249.72V97.2603H256.91V99.0602H254.22H254.21Z" fill="white"/>
<path d="M261.61 104.45V97.2603H263.41V104.45C263.41 105.07 263.63 105.6 264.07 106.04C264.51 106.48 265.04 106.7 265.66 106.7C266.28 106.7 266.81 106.48 267.25 106.04C267.69 105.6 267.91 105.07 267.91 104.45V97.2603H269.71V104.45C269.71 105.57 269.32 106.52 268.53 107.31C267.74 108.1 266.79 108.49 265.67 108.49C264.55 108.49 263.6 108.1 262.81 107.31C262.02 106.52 261.63 105.57 261.63 104.45H261.61Z" fill="white"/>
<path d="M278.58 105.35H277.23V108.04H275.43V97.2603H279.47C280.59 97.2603 281.54 97.6503 282.33 98.4403C283.12 99.2303 283.51 100.18 283.51 101.3C283.51 102.42 283.12 103.37 282.33 104.16C281.83 104.66 281.27 105 280.65 105.18L283.51 108.04H281.26L278.57 105.35H278.58ZM277.23 99.0602V103.55H279.48C280.1 103.55 280.63 103.33 281.07 102.89C281.51 102.45 281.73 101.92 281.73 101.3C281.73 100.68 281.51 100.15 281.07 99.7103C280.63 99.2703 280.1 99.0503 279.48 99.0503H277.23V99.0602Z" fill="white"/>
<path d="M294.74 97.2603V99.0602H290.25V101.76H293.84V103.56H290.25V106.25H294.74V108.05H288.45V97.2702H294.74V97.2603Z" fill="white"/>
</g>
<defs>
<clipPath id="clip0_12_85">
<rect width="296.81" height="108.49" fill="white"/>
</clipPath>
</defs>
</svg>
