<svg width="56" height="109" viewBox="0 0 56 109" fill="none" xmlns="http://www.w3.org/2000/svg">
<path d="M55.4802 53.7598V108.49H44.9102V62.1398L55.4802 53.7598Z" fill="#C1AD6D"/>
<path d="M55.48 0V40.4L44.91 48.78L33.04 58.19V90.71L22.48 82.33V53.08L33.04 44.7L44.91 35.29V21.86L33.04 31.28L23.18 39.1L22.48 39.66L10.57 49.1V108.49H0V43.99L10.57 35.61L22.48 26.16L33.04 17.78L55.48 0Z" fill="#C1AD6D"/>
<path d="M23.18 39.0998L22.48 39.6598V26.1598L33.04 17.7798V31.2798L23.18 39.0998Z" fill="#C1AD6D"/>
<path d="M33.04 63.7902L22.48 55.4102V53.0802L33.04 44.7002V63.7902Z" fill="#C1AD6D"/>
<path d="M55.48 71.2599V108.49L44.91 100.11L33.04 90.7099L22.48 82.3299L10.57 72.8799L0 64.4999V43.9899L10.57 35.6099V59.3899L22.48 68.8299L23.18 69.3899L33.04 77.2099L44.91 86.6299V62.8799L55.48 71.2599Z" fill="#C1AD6D"/>
</svg>
